<?xml version="1.0" encoding="UTF-8" standalone="no"?>
<!-- Created with Inkscape (http://www.inkscape.org/) -->

<svg
   xmlns:dc="http://purl.org/dc/elements/1.1/"
   xmlns:cc="http://creativecommons.org/ns#"
   xmlns:rdf="http://www.w3.org/1999/02/22-rdf-syntax-ns#"
   xmlns:svg="http://www.w3.org/2000/svg"
   xmlns="http://www.w3.org/2000/svg"
   xmlns:xlink="http://www.w3.org/1999/xlink"
   xmlns:sodipodi="http://sodipodi.sourceforge.net/DTD/sodipodi-0.dtd"
   xmlns:inkscape="http://www.inkscape.org/namespaces/inkscape"
   width="112"
   height="112"
   viewBox="0 0 112 111.99999"
   id="svg4874"
   version="1.1"
   inkscape:version="0.91 r13725"
   sodipodi:docname="icon.svg">
  <defs
     id="defs4876" />
  <sodipodi:namedview
     id="base"
     pagecolor="#ffffff"
     bordercolor="#666666"
     borderopacity="1.0"
     inkscape:pageopacity="0.0"
     inkscape:pageshadow="2"
     inkscape:zoom="1"
     inkscape:cx="21.226281"
     inkscape:cy="41.587197"
     inkscape:document-units="px"
     inkscape:current-layer="layer1"
     showgrid="true"
     inkscape:window-width="1920"
     inkscape:window-height="1004"
     inkscape:window-x="0"
     inkscape:window-y="0"
     inkscape:window-maximized="1"
     borderlayer="true"
     units="px"
     showguides="true"
     inkscape:guide-bbox="true">
    <inkscape:grid
       type="xygrid"
       id="grid4139"
       spacingx="7"
       spacingy="6.9999994" />
  </sodipodi:namedview>
  <metadata
     id="metadata4879">
    <rdf:RDF>
      <cc:Work
         rdf:about="">
        <dc:format>image/svg+xml</dc:format>
        <dc:type
           rdf:resource="http://purl.org/dc/dcmitype/StillImage" />
        <dc:title></dc:title>
      </cc:Work>
    </rdf:RDF>
  </metadata>
  <g
     inkscape:label="Layer 1"
     inkscape:groupmode="layer"
     id="layer1"
     transform="translate(0,-940.36224)">
    <path
       sodipodi:nodetypes="ccccc"
       inkscape:connector-curvature="0"
       id="path4402"
       d="m 0,940.3622 112,10e-6 0,111.99999 -112,0 z"
       style="color:#000000;clip-rule:nonzero;display:inline;overflow:visible;visibility:visible;opacity:1;isolation:auto;mix-blend-mode:normal;color-interpolation:sRGB;color-interpolation-filters:linearRGB;solid-color:#000000;solid-opacity:1;fill:#36352f;fill-opacity:1;fill-rule:nonzero;stroke:none;stroke-width:2;stroke-linecap:butt;stroke-linejoin:miter;stroke-miterlimit:4;stroke-dasharray:none;stroke-dashoffset:0;stroke-opacity:1;marker:none;color-rendering:auto;image-rendering:auto;shape-rendering:auto;text-rendering:auto;enable-background:accumulate" />
    <image
       xlink:href="../style/bgheader.jpg"
       y="788.36224"
       x="0"
       id="image5934"
       preserveAspectRatio="none"
       height="264"
       width="460" />
    <g
       id="g5852"
       transform="translate(-126.0887,580.63932)"
       style="fill:#6d6b5c;fill-opacity:1">
      <path
         d="m 139.20928,435.17229 c 0,0.54018 0.15491,1.02634 0.46473,1.45849 0.36146,0.43214 0.77456,0.83728 1.23929,1.2154 0.46474,0.32411 0.90365,0.64822 1.31675,0.97232 0.46473,0.32411 0.80037,0.64822 1.00692,0.97233 l 7.71975,0 c 0.0516,0 0.20655,-0.18907 0.46474,-0.56719 0.30982,-0.37813 0.61964,-0.83728 0.92947,-1.37746 0.36146,-0.54018 0.6971,-1.08036 1.00692,-1.62054 0.36146,-0.59419 0.64546,-1.08035 0.85201,-1.45848 l 0,-2.16072 c 0,-1.18839 -0.25818,-2.21473 -0.77455,-3.07902 -0.51638,-0.9183 -1.18766,-1.64754 -2.01385,-2.18772 -0.77456,-0.54018 -2.74071,0.61718 -3.77345,0.34709 -1.03274,-0.27009 -2.29391,-1.96763 -3.32666,-1.96763 -0.82619,0 -1.54911,0.2971 -2.16876,0.89129 -0.61964,0.5942 -1.16183,1.32344 -1.62657,2.18773 -0.41309,0.81027 -0.74873,1.67456 -1.00692,2.59286 -0.20655,0.9183 -0.30982,3.07902 -0.30982,3.78125 z"
         id="path5797"
         inkscape:connector-curvature="0"
         style="color:#000000;font-style:normal;font-variant:normal;font-weight:normal;font-stretch:normal;font-size:medium;line-height:125%;font-family:'1942 report';-inkscape-font-specification:'1942 report, Normal';text-align:start;letter-spacing:0px;word-spacing:0px;writing-mode:lr-tb;text-anchor:start;clip-rule:nonzero;visibility:visible;isolation:auto;mix-blend-mode:normal;color-interpolation:sRGB;color-interpolation-filters:linearRGB;solid-color:#000000;solid-opacity:1;fill:#6d6b5c;fill-opacity:1;fill-rule:nonzero;stroke:none;stroke-width:1px;stroke-linecap:butt;stroke-linejoin:miter;stroke-miterlimit:4;stroke-dasharray:none;stroke-dashoffset:0;stroke-opacity:1;color-rendering:auto;image-rendering:auto;shape-rendering:auto;text-rendering:auto"
         sodipodi:nodetypes="sccccsccccsccsssccs" />
      <path
         sodipodi:nodetypes="cccssscscccccccccscccsccscssccccscccccccccscccccccscccsccccsccccccssccsscccsccscccssccscc"
         inkscape:connector-curvature="0"
         id="path5817"
         d="m 175.51665,406.51386 -0.0424,2.02461 -0.11549,5.51467 c 0.018,0.81158 0.0204,1.51431 0.008,2.10821 l -0.085,4.05695 c -0.003,0.16194 0.0395,0.62349 0.12858,1.38459 0.0891,0.76109 0.19459,1.57704 0.31643,2.44786 0.12297,0.81682 0.22901,1.60578 0.31812,2.36688 0.0891,0.76108 0.12113,-0.0154 0.10939,0.15492 l -0.13076,0.4423 -0.21791,0.73717 -0.21792,0.73716 -0.10897,0.36859 c -0.076,0.7777 -0.11574,1.43255 -0.11908,1.96455 l 0.12039,1.92485 c 0.0575,0.45611 0.0591,4.03314 0.13391,4.56084 0.0893,0.47855 0.0778,5.95926 0.0945,6.68352 0.0229,0.31299 0.30153,0.19546 0.0142,1.188 -0.55886,1.93074 0.41456,6.31876 2.93933,4.72067 0.78788,0.40153 2.31458,-0.13813 2.97913,0.22216 0.68891,0.39907 1.11977,0.61986 1.29259,0.66235 0.32051,0.12254 0.6909,0.0154 1.11117,0.0637 0.42028,0.0486 0.84095,0.0591 1.26202,0.0313 0.44621,-0.0653 0.86848,-0.20771 1.26679,-0.42703 0.42266,-0.18055 0.77228,-0.47751 1.04885,-0.89087 0.0503,-0.0752 0.11354,-0.20729 0.18976,-0.39641 l 0.15086,-0.22547 c 0.0251,-0.0375 0.0271,-0.22853 0.006,-0.57287 -0.0212,-0.34434 -0.0192,-0.27899 0.006,-0.31656 0.0762,-0.18912 0.25742,-0.006 0.56072,-0.60934 0.32765,-0.5649 0.52919,-0.73284 0.60462,-0.84558 l -0.65741,-0.79141 c -0.24268,-0.46443 -0.51623,-0.61858 -0.8092,-1.00785 -0.29298,-0.38927 -0.61109,-0.0575 -0.95436,-0.37157 -0.31891,-0.27533 -0.66376,-0.43665 -1.03455,-0.48405 -0.099,-0.002 -0.38375,0.009 -0.85431,0.0361 -0.44541,-0.0108 -0.92816,0.18984 -1.44821,0.21438 -0.51927,-0.0511 -1.0016,-0.0821 -1.44702,-0.0932 -1.06257,-0.34453 -0.57678,-10.00194 -0.62272,-11.3334 -0.002,-0.12069 -0.0329,-0.40913 -0.0904,-0.86525 -0.043,-0.50526 -0.0933,-1.43079 -0.16816,-1.95848 -0.0284,-0.5544 0.27191,-2.38473 0.1061,-2.82537 -0.13089,-0.43889 -0.1952,-0.71233 -0.19293,-0.82032 0.001,-0.054 -0.0265,-0.40666 -0.0829,-1.05802 -0.0203,-0.70361 -0.0564,-1.48909 -0.10824,-2.3564 l -0.15222,-2.76396 c -0.0158,-0.91957 0.0297,-4.7623 0.007,-5.35793 l 0.008,-0.40492 0.017,-0.80985 0.017,-0.80984 0.0102,-0.48591 c 10e-4,-0.054 0.0347,-3.32982 -0.0285,-3.65725 -0.0271,-0.37968 -0.0722,-0.73322 -0.13537,-1.06066 -0.062,-0.38142 -0.12466,-0.73583 -0.18784,-1.06326 -0.0282,-0.3257 -0.0412,-0.54253 -0.0389,-0.6505 0.009,-0.43191 0.008,-1.21565 -0.003,-2.35117 l 0.13923,-5.298 0.0746,-3.56333 c 0.0587,-1.13203 0.15722,-7.05993 0.16627,-7.49184 -0.07,-0.003 -0.17265,-0.11668 -0.30805,-0.33965 -0.13541,-0.22294 -0.21947,-0.38927 -0.25219,-0.49898 0.005,-0.21597 -0.006,-0.56778 -0.0304,-1.05542 l 0.0305,-1.9538 0.0791,-1.24932 c 0.0451,-0.48417 -1.36166,-0.0425 -1.35714,-0.25844 -0.93214,1.03441 -0.98296,-0.66683 -3.20985,0.35721 -0.48529,1.43503 0.64179,10.97124 0.43184,12.6362 -0.20996,1.66495 -0.38428,6.44718 -0.43382,8.17407 z m 8.26771,-24.78546 c -0.40364,0.17913 -2.88813,-0.087 -3.29712,0.26889 -0.2086,0.18158 0.37354,0.20007 0.86773,1.4841 0.13708,0.35618 -0.0355,1.08135 -0.1058,1.70544 l 1.1975,0.41347 c 0.13959,0.16287 0.35415,-0.096 0.62367,0.17781 0.30317,0.25891 0.63232,0.40956 0.89498,0.69887 l 0.77956,0.85868 c 0.21655,0.18494 0.35846,0.26248 0.42574,0.23263 0.077,0.0221 0.33889,-0.038 0.78585,-0.18012 0.48058,-0.15706 0.84575,-0.62869 1.08121,-0.73318 0.16819,-0.0747 0.46609,-0.23493 0.8937,-0.48091 0.46124,-0.2609 0.75399,0.36346 0.91251,0.2369 0.019,-0.28942 0.0183,-0.8793 -0.002,-1.76964 -0.0106,-0.83843 -0.04,-1.88349 -0.0883,-2.14307 -0.0677,-0.36341 -0.31557,-0.61876 -0.74361,-0.76604 -0.42804,-0.14724 -0.91852,-0.23877 -1.47143,-0.27443 -0.50961,10e-4 -1.0312,0.0361 -1.56477,0.10418 -0.5239,0.12008 -0.9204,0.0469 -1.1895,0.16633 z"
         style="color:#000000;font-style:normal;font-variant:normal;font-weight:normal;font-stretch:normal;font-size:medium;line-height:125%;font-family:'1942 report';-inkscape-font-specification:'1942 report, Normal';text-align:start;letter-spacing:0px;word-spacing:0px;writing-mode:lr-tb;text-anchor:start;clip-rule:nonzero;visibility:visible;isolation:auto;mix-blend-mode:normal;color-interpolation:sRGB;color-interpolation-filters:linearRGB;solid-color:#000000;solid-opacity:1;fill:#6d6b5c;fill-opacity:1;fill-rule:nonzero;stroke:none;stroke-width:1px;stroke-linecap:butt;stroke-linejoin:miter;stroke-miterlimit:4;stroke-dasharray:none;stroke-dashoffset:0;stroke-opacity:1;color-rendering:auto;image-rendering:auto;shape-rendering:auto;text-rendering:auto" />
      <path
         sodipodi:nodetypes="ccscccccscccssccccccccccccccscsccccccscscsccccccscscsscccccscsccsssscscccssccssscscscssccccccccccscccsccccccccc"
         inkscape:connector-curvature="0"
         id="path5823"
         d="m 219.70575,381.24409 c 0.4355,0.0539 0.79122,0.26434 1.08985,0.72045 l 0,0.40393 c 0,0.21607 0.0355,-0.17268 0.10547,0.36747 0.035,0.48618 0.0882,0.99717 0.1582,1.53735 0.035,0.48616 0.0882,0.11842 0.1582,0.60458 0.035,0.43215 0.0685,0.73022 0.10352,0.89227 0,0.10804 0.0887,0.40308 0.26367,0.88925 0.175,0.43214 0.26172,0.70283 0.26172,0.81087 0,0.16205 -0.0177,0.54223 -0.0527,1.13643 -0.07,0.54017 -0.12125,1.38959 -0.15625,2.0378 -0.07,0.64822 -0.14093,2.12308 -0.21093,2.71729 -0.07,0.54015 -0.10547,0.89298 -0.10547,1.05503 l 0,0.88924 c 0,1.02634 0.0532,1.97226 0.1582,2.83655 0.07,0.81026 0.13898,1.64669 0.20898,2.51098 0.07,0.81027 0.14094,1.6771 0.21094,2.59539 0.035,0.8643 0.0173,1.83457 -0.0527,2.91493 l 0.57812,0.89225 0,13.45023 0.52539,1.62174 0,11.34317 -2.15429,0 0,2.51098 2.15429,0 c -0.035,0.21607 -0.0705,0.59322 -0.10547,1.1334 -0.07,0.48616 -0.1232,1.02756 -0.1582,1.62176 -0.07,0.5942 -0.12125,2.95412 -0.15625,3.4943 -0.07,0.48617 -0.10547,0.83896 -0.10547,1.05504 l 0,0.40393 c -0.035,0.21607 -0.0527,0.3803 -0.0527,0.48833 0,1.08036 0.10445,2.078 0.31445,2.9963 0.21,0.97232 0.31445,1.17034 0.31445,2.30471 -1.03388,1.57203 -4.87901,1.12448 -5.97265,0.89708 -0.0285,-0.0372 -0.0464,-0.0864 -0.0801,-0.1176 -0.175,-0.10804 -0.36813,-0.15977 -0.57813,-0.15977 -0.20999,-0.054 -0.42085,-0.054 -0.63085,0 l -0.41993,0 c -0.455,0 -0.77031,0.0517 -0.94531,0.15977 -0.21,0.10803 -1.1157,0.2175 -1.2207,0.32554 -0.105,0.10803 -0.19367,0.21451 -0.26367,0.32255 -0.105,0.10803 -0.28039,0.16278 -0.52539,0.16278 -0.035,0 -0.0685,-0.0273 -0.10352,-0.0813 l -0.1582,0 c -0.07,-0.054 -0.15672,-0.18786 -0.26172,-0.40393 -0.14,-0.16205 -0.22867,-0.29589 -0.26367,-0.40393 l -0.53907,-2.19919 -0.91601,-1.9702 c 0.14,0 0.36859,-0.0273 0.68359,-0.0813 0.315,-0.054 0.6461,-0.1088 0.9961,-0.16278 0.35,-0.10803 0.68304,-0.2175 0.99804,-0.32554 0.315,-0.10803 0.52586,-0.18713 0.63086,-0.24115 0.07,-0.054 0.24344,0.0124 0.52344,-0.47326 0.28,-0.48616 0.45539,-0.2537 0.52539,-0.36173 0.105,-0.16206 0.28039,-0.2959 0.52539,-0.40393 0.245,-0.16206 0.48938,-0.35064 0.73438,-0.56671 0.16267,-0.14338 1.17167,-0.28759 1.9082,-0.43105 0.0126,-0.0522 0.0703,-0.18815 0.0703,-0.21704 l 0.0508,-0.32555 0,-0.56671 c 0,-0.54018 -0.10445,-2.68416 -0.31445,-2.84621 -0.21,-0.21607 -0.31445,-0.54151 -0.31445,-0.97365 0,-0.37812 0.0355,-0.62145 0.10546,-0.72949 l 0.20899,-0.48531 c 0.07,-0.16205 0.14094,-0.378 0.21094,-0.64809 0.07,-0.27009 0.10351,-0.72937 0.10351,-1.37758 0,-1.40447 -0.10445,-1.40447 -0.31445,-2.7009 -0.21,-1.29643 -0.31445,-2.64688 -0.31445,-4.05134 0,-0.10804 0.0177,-0.26923 0.0527,-0.48533 l 0,-0.32554 c 0,-0.10804 0.0335,-0.37873 0.10352,-0.81087 0.035,-0.43215 0.0882,-0.86406 0.1582,-1.2962 0.07,-0.48616 0.14094,-0.91806 0.21094,-1.29618 0.035,-0.43215 0.0527,-0.70284 0.0527,-0.81087 l 0,-1.05203 c 0,-0.70223 0.0158,-1.48694 0.0508,-2.35123 l 0,-2.75516 0,-2.18542 c 0,-3.02501 -0.10445,-5.94185 -0.31445,-8.75078 -0.21,-2.80893 -0.31445,-4.35098 -0.31445,-7.32196 l 0,-0.88926 0,-1.2148 c 0,-0.43213 0.0177,-0.78494 0.0527,-1.05503 l 0,-0.48532 c 0,-0.10803 0.0867,-0.37872 0.26172,-0.81087 0.175,-0.48616 0.26367,-0.78423 0.26367,-0.89226 l 0,-0.72948 c 0,-0.97073 -0.0659,-3.03092 -0.16406,-3.97135 l -0.14063,-0.0543 c -0.175,-0.10803 -0.38586,-0.19014 -0.63086,-0.24416 l -0.73437,-0.32253 c -0.245,-0.10804 -1.07458,-0.19016 -1.24958,-0.24418 -0.07,0 -0.22766,-0.0273 -0.47266,-0.0813 -0.28,-0.10803 -0.57757,-0.19014 -0.89257,-0.24416 -0.315,-0.10803 -1.21985,-0.18713 -1.46485,-0.24115 -0.28,-0.10803 -0.45539,-0.19016 -0.52539,-0.24417 -0.28,-0.16206 -0.62883,-0.48447 -1.04883,-0.97063 -0.42,-0.54018 -0.63086,-1.55026 -0.63086,-2.03643 0,-0.3241 0.0355,-0.64954 0.10547,-0.97365 0.07,-0.3241 0.24539,-0.56743 0.52539,-0.72948 0.245,-0.054 0.6825,-0.16048 1.3125,-0.32254 0.595,-0.21607 1.86641,-0.0629 2.56641,-0.22496 0.7,-0.16205 1.98481,0.10092 2.61481,-0.0611 0.18098,-0.0466 0.22775,-0.0559 0.37696,-0.0935 0.61562,-0.1709 2.0059,-0.27384 2.4414,-0.22005 z m 2.14063,45.09513 -1.05078,0 0,1.70314 1.05078,0 z"
         style="color:#000000;font-style:normal;font-variant:normal;font-weight:normal;font-stretch:normal;font-size:medium;line-height:125%;font-family:'1942 report';-inkscape-font-specification:'1942 report, Normal';text-align:start;letter-spacing:0px;word-spacing:0px;writing-mode:lr-tb;text-anchor:start;clip-rule:nonzero;visibility:visible;isolation:auto;mix-blend-mode:normal;color-interpolation:sRGB;color-interpolation-filters:linearRGB;solid-color:#000000;solid-opacity:1;fill:#6d6b5c;fill-opacity:1;fill-rule:nonzero;stroke:none;stroke-width:1px;stroke-linecap:butt;stroke-linejoin:miter;stroke-miterlimit:4;stroke-dasharray:none;stroke-dashoffset:0;stroke-opacity:1;color-rendering:auto;image-rendering:auto;shape-rendering:auto;text-rendering:auto" />
    </g>
  </g>
</svg>
